<?xml version="1.0" encoding="iso-8859-1"?>
<!-- Generator: Adobe Illustrator 19.0.0, SVG Export Plug-In . SVG Version: 6.00 Build 0)  -->
<svg version="1.1" id="Capa_1" xmlns="http://www.w3.org/2000/svg" xmlns:xlink="http://www.w3.org/1999/xlink" x="0px" y="0px"
	 viewBox="0 0 496 496" style="enable-background:new 0 0 496 496;" xml:space="preserve">
<g>
	<g>
		<g>
			<path d="M364.971,264c0.312-4.224,0.568-8.448,0.776-12.672l0.616-12.336c0.808-16.08-1.648-31.88-7.304-46.976
				c-10.952-29.208-33.592-53.232-62.104-65.904l-23.064-10.248l35.976-86.344c1.096-2.624,1.64-5.368,1.64-8.184
				C311.507,9.568,301.939,0,290.171,0H76.843C65.075,0,55.507,9.568,55.507,21.336c0,2.816,0.544,5.56,1.64,8.2l35.968,86.32
				l-23.064,10.248C41.539,138.776,18.899,162.8,7.947,192.016c-5.656,15.088-8.112,30.888-7.304,46.968l0.616,12.336
				c4.208,84.096,25.432,164.92,63.096,240.256L66.563,496h233.888l2.208-4.424c0.552-1.104,1.08-2.208,1.624-3.32
				c12.12,4.96,25.344,7.744,39.224,7.744h48c57.344,0,104-46.656,104-104V264H364.971z M76.555,140.736l37.344-16.592
				L71.923,23.408c-0.272-0.672-0.416-1.368-0.416-2.072c0-2.944,2.392-5.336,5.336-5.336h213.328c2.944,0,5.336,2.392,5.336,5.336
				c0,0.704-0.144,1.4-0.408,2.048l-41.984,100.76l37.344,16.592c19.992,8.88,36.536,24.296,47.152,43.264H29.403
				C40.019,165.032,56.563,149.616,76.555,140.736z M16.635,230.88c0.224-10.528,2.072-20.88,5.552-30.88h322.64
				c3.48,10.008,5.328,20.352,5.552,30.88c-7.336-9-18.376-14.88-30.872-14.88c-9.04,0-17.296,3.128-24,8.208V224h-88v0.208
				c-6.704-5.08-14.96-8.208-24-8.208s-17.296,3.128-24,8.208V224h-88v0.208c-6.704-5.08-14.96-8.208-24-8.208
				C35.011,216,23.971,221.88,16.635,230.88z M311.507,248v16h-14.448c-0.912-2.576-1.552-5.24-1.552-8c0-13.232,10.768-24,24-24
				s24,10.768,24,24c0,2.76-0.64,5.424-1.552,8h-14.448v-16H311.507z M280.403,264h-32.896h-8h-16.808
				c0.528-2.584,0.808-5.264,0.808-8c0-5.696-1.232-11.088-3.392-16h62.784c-2.16,4.912-3.392,10.304-3.392,16
				C279.507,258.704,279.867,261.368,280.403,264z M255.507,312h24v48h-24V312z M207.507,256c0,13.232-10.768,24-24,24
				s-24-10.768-24-24s10.768-24,24-24S207.507,242.768,207.507,256z M71.507,256c0,13.232-10.768,24-24,24s-24-10.768-24-24
				s10.768-24,24-24S71.507,242.768,71.507,256z M20.059,284.952c7.176,6.8,16.8,11.048,27.448,11.048
				c13.016,0,24.488-6.344,31.792-16h32.208v-16H86.699c0.528-2.584,0.808-5.264,0.808-8c0-5.696-1.24-11.088-3.392-16h62.784
				c-2.16,4.912-3.392,10.304-3.392,16c0,2.736,0.28,5.416,0.808,8h-16.808v16h24.208c7.312,9.656,18.776,16,31.792,16
				s24.488-6.344,31.792-16h24.208v32H23.563C22.171,303.032,21.035,294.008,20.059,284.952z M98.819,328h73.376l-36.688,36.688
				L98.819,328z M124.195,376H50.819l36.688-36.688L124.195,376z M183.507,339.312L220.195,376h-73.376L183.507,339.312z
				 M194.819,328h44.688v28.688l-8,8L194.819,328z M26.411,328h49.784l-40.904,40.904C31.795,355.4,28.939,341.744,26.411,328z
				 M41.883,392h197.624c0,5.456,0.552,10.768,1.36,16H47.075C45.291,402.68,43.515,397.36,41.883,392z M76.475,480
				c-8.984-18.344-16.952-37.032-23.936-56h192.056c7.592,23.4,23.288,43.128,43.744,56H76.475z M269.931,440.136
				c0.528-0.024,1.04-0.136,1.576-0.136c19.88,0,36.288,14.624,39.36,33.656C294.027,466.896,279.763,455.112,269.931,440.136z
				 M391.507,480h-48c-5.416,0-10.696-0.56-15.848-1.504C328.467,457.152,345.971,440,367.507,440s39.04,17.152,39.848,38.496
				C402.203,479.44,396.923,480,391.507,480z M424.147,473.656c3.072-19.032,19.48-33.656,39.36-33.656
				c0.536,0,1.048,0.112,1.576,0.128C455.251,455.112,440.987,466.896,424.147,473.656z M473.091,424.824
				c-3.152-0.544-6.352-0.824-9.584-0.824c-20.384,0-38.2,10.984-48,27.304c-9.8-16.32-27.616-27.304-48-27.304
				c-20.384,0-38.2,10.984-48,27.304c-9.8-16.32-27.616-27.304-48-27.304c-3.24,0-6.44,0.28-9.584,0.824
				c-2.168-5.368-3.808-10.992-4.888-16.824h220.944C476.899,413.832,475.259,419.456,473.091,424.824z M479.507,392h-224v-16h224
				V392z M295.507,360v-48h24v48H295.507z M335.507,360v-48h24v48H335.507z M375.507,360v-48h24v48H375.507z M479.507,360h-24v-16
				h-16v16h-24v-48h24v16h16v-16h24V360z M479.507,296h-224v-16h224V296z"/>
			<rect x="175.507" y="248" width="16" height="16"/>
			<rect x="39.507" y="248" width="16" height="16"/>
		</g>
	</g>
</g>
<g>
</g>
<g>
</g>
<g>
</g>
<g>
</g>
<g>
</g>
<g>
</g>
<g>
</g>
<g>
</g>
<g>
</g>
<g>
</g>
<g>
</g>
<g>
</g>
<g>
</g>
<g>
</g>
<g>
</g>
</svg>
